<svg xmlns="http://www.w3.org/2000/svg" width="95.24" height="50" viewBox="0 0 95.24 50">
  <g id="blueLogo" transform="translate(-150.76 -90)">
    <path id="패스_4" data-name="패스 4" d="M-22.11-14h6.36a8.938,8.938,0,0,1,4.03.87A6.514,6.514,0,0,1-9-10.68,6.891,6.891,0,0,1-8.03-7,6.891,6.891,0,0,1-9-3.32,6.514,6.514,0,0,1-11.72-.87,8.938,8.938,0,0,1-15.75,0h-6.36Zm6.2,11.34a4.7,4.7,0,0,0,3.35-1.17A4.132,4.132,0,0,0-11.31-7a4.132,4.132,0,0,0-1.25-3.17,4.7,4.7,0,0,0-3.35-1.17h-2.96v8.68ZM-5.99-14h3.24V0H-5.99ZM12.91,0l-.02-8.4L8.77-1.48H7.31L3.21-8.22V0H.17V-14H2.85L8.09-5.3,13.25-14h2.66l.04,14Zm5.96-14h3.24V0H18.87ZM-22.12,29h-13l-2.48,6h-6.64L-31.76,7h6.4l12.52,28h-6.8Zm-2.04-4.92L-28.6,13.36l-4.44,10.72ZM7.12,35l-5.4-7.8H-4.24V35h-6.48V7H1.4A15.555,15.555,0,0,1,7.86,8.24a9.6,9.6,0,0,1,4.22,3.52,9.7,9.7,0,0,1,1.48,5.4,9.5,9.5,0,0,1-1.5,5.38A9.507,9.507,0,0,1,7.8,26l6.28,9ZM7,17.16a4.435,4.435,0,0,0-1.52-3.62,6.805,6.805,0,0,0-4.44-1.26H-4.24v9.76H1.04a6.73,6.73,0,0,0,4.44-1.28A4.448,4.448,0,0,0,7,17.16ZM31.28,35.48a16.083,16.083,0,0,1-7.74-1.86,13.881,13.881,0,0,1-5.44-5.16A14.216,14.216,0,0,1,16.12,21a14.216,14.216,0,0,1,1.98-7.46,13.881,13.881,0,0,1,5.44-5.16,16.167,16.167,0,0,1,7.78-1.86A16.319,16.319,0,0,1,37.9,7.8a13.179,13.179,0,0,1,4.94,3.68l-4.16,3.84a8.944,8.944,0,0,0-7.04-3.28A9.348,9.348,0,0,0,27,13.18a8.1,8.1,0,0,0-3.18,3.18A9.348,9.348,0,0,0,22.68,21a9.348,9.348,0,0,0,1.14,4.64A8.1,8.1,0,0,0,27,28.82a9.348,9.348,0,0,0,4.64,1.14,8.9,8.9,0,0,0,7.04-3.32l4.16,3.84a12.967,12.967,0,0,1-4.96,3.72A16.462,16.462,0,0,1,31.28,35.48Z" transform="translate(195 104)" fill="#4e7dff"/>
    <circle id="타원_1" data-name="타원 1" cx="3" cy="3" r="3" transform="translate(240 134)" fill="#4e7dff"/>
  </g>
</svg>
